<?xml version="1.0" encoding="utf-8"?>
<!-- Generator: Adobe Illustrator 19.1.0, SVG Export Plug-In . SVG Version: 6.00 Build 0)  -->
<!DOCTYPE svg PUBLIC "-//W3C//DTD SVG 1.1//EN" "http://www.w3.org/Graphics/SVG/1.1/DTD/svg11.dtd">
<svg version="1.1" xmlns="http://www.w3.org/2000/svg" xmlns:xlink="http://www.w3.org/1999/xlink" x="0px" y="0px"
	 viewBox="0 0 40 40" enable-background="new 0 0 40 40" xml:space="preserve">
<g id="Ebene_2">
</g>
<g id="Ebene_1">
	<circle cx="14.5" cy="24.5" r="3"/>
	<rect x="14" y="6" width="1" height="18"/>
	<rect x="14" y="24" width="18" height="1"/>
	<rect x="10" y="22" transform="matrix(0.7071 0.7071 -0.7071 0.7071 23.211 0.8821)" width="1" height="12.8"/>
	<g>
		<path d="M18.5,18.2c0.5,0.5,1.1,0.9,2,0.9c0.9,0,1.6-0.6,1.6-1.4c0-0.9-0.6-1.5-2.4-1.5v-0.8c1.6,0,2.2-0.6,2.2-1.4
			c0-0.7-0.5-1.2-1.3-1.2c-0.6,0-1.2,0.3-1.6,0.8L18.3,13c0.6-0.6,1.3-1,2.2-1c1.3,0,2.3,0.7,2.3,1.9c0,0.9-0.6,1.5-1.4,1.8v0
			c0.9,0.2,1.7,0.9,1.7,1.9c0,1.4-1.1,2.2-2.5,2.2c-1.2,0-2-0.5-2.5-1.1L18.5,18.2z"/>
		<path d="M25,12h2c2.4,0,3.7,1.4,3.7,3.9c0,2.5-1.3,4-3.7,4h-2V12z M26.9,19.1c1.8,0,2.8-1.2,2.8-3.2c0-2-0.9-3.1-2.8-3.1H26v6.2
			H26.9z"/>
	</g>
</g>
<g id="Ebene_3">
</g>
</svg>
