<?xml version="1.0" encoding="utf-8"?>
<!-- Generator: Adobe Illustrator 19.1.0, SVG Export Plug-In . SVG Version: 6.00 Build 0)  -->
<!DOCTYPE svg PUBLIC "-//W3C//DTD SVG 1.1//EN" "http://www.w3.org/Graphics/SVG/1.1/DTD/svg11.dtd">
<svg version="1.1" xmlns="http://www.w3.org/2000/svg" xmlns:xlink="http://www.w3.org/1999/xlink" x="0px" y="0px"
	 viewBox="0 0 40 40" enable-background="new 0 0 40 40" xml:space="preserve">
<g id="Ebene_2">
</g>
<g id="Ebene_1">
	<g>
		<path fill="#9C9B9B" d="M29.8,6.2c-0.1,0.7-0.4,1.5-0.7,2.2c-1.4,3.3-3.3,6.4-5.2,9.5c-1.4,2.2-2.9,4.3-4.6,6.3
			c-0.2,0.2-0.4,0.3-0.6,0.1c-0.4-0.3-0.9-0.6-1.3-0.8c-0.3-0.2-0.3-0.3-0.2-0.6c0.7-1.7,1.6-3.3,2.5-4.8c2-3.4,4.2-6.7,6.8-9.8
			c0.7-0.8,1.3-1.6,2.2-2.2c0.1-0.1,0.3-0.2,0.5-0.3C29.5,5.5,29.7,5.6,29.8,6.2z"/>
		<path fill="#9C9B9B" d="M9.8,33.5c0.9,0.3,1.8,0.1,2.6-0.1c3.4-1,5.2-3.4,5.9-6.7c0.1-0.5,0.4-1.1,0.2-1.5
			c-0.1-0.4-0.8-0.6-1.2-0.9c-0.7-0.5-0.7-0.5-1.5,0c-0.6,0.4-1.2,0.8-1.8,1.3c-0.9,0.8-1.5,1.9-1.7,3.1c-0.1,0.6-0.2,1.2-0.4,1.7
			C11.6,31.6,10.9,32.6,9.8,33.5z"/>
	</g>
</g>
<g id="Ebene_3">
</g>
</svg>
