<?xml version="1.0" encoding="utf-8"?>
<!-- Generator: Adobe Illustrator 19.2.1, SVG Export Plug-In . SVG Version: 6.00 Build 0)  -->
<!DOCTYPE svg PUBLIC "-//W3C//DTD SVG 1.1//EN" "http://www.w3.org/Graphics/SVG/1.1/DTD/svg11.dtd">
<svg version="1.1" id="Ebene_1" xmlns="http://www.w3.org/2000/svg" xmlns:xlink="http://www.w3.org/1999/xlink" x="0px" y="0px"
	 viewBox="0 0 40 40" enable-background="new 0 0 40 40" xml:space="preserve">
<g id="Ebene_1_1_">
	<g>
		<g>
			<g>
				<path id="SVGID_7_" fill="#FFFFFF" d="M15,23.5v-4l6.2,6.5L15,32.5v-4H8v-5H15z M14,17.5v5H7v7h7v5l8.4-8.5L14,17.5z"/>
			</g>
			<g>
				<defs>
					<path id="SVGID_1_" d="M15,23.5v-4l6.2,6.5L15,32.5v-4H8v-5H15z M14,17.5v5H7v7h7v5l8.4-8.5L14,17.5z"/>
				</defs>
				<use xlink:href="#SVGID_1_"  overflow="visible" fill="#FFFFFF"/>
				<clipPath id="SVGID_2_">
					<use xlink:href="#SVGID_1_"  overflow="visible"/>
				</clipPath>
				<rect x="3" y="13.7" clip-path="url(#SVGID_2_)" fill="#FFFFFF" width="27.9" height="28.8"/>
			</g>
		</g>
	</g>
	<g>
		<g>
			<g>
				<path id="SVGID_9_" fill="#FFFFFF" d="M32,11.5v5h-7v4L18.8,14L25,7.5v4H32z M17.6,14l8.4,8.5v-5h7v-7h-7v-5L17.6,14z"/>
			</g>
			<g>
				<defs>
					<path id="SVGID_3_" d="M32,11.5v5h-7v4L18.8,14L25,7.5v4H32z M17.6,14l8.4,8.5v-5h7v-7h-7v-5L17.6,14z"/>
				</defs>
				<use xlink:href="#SVGID_3_"  overflow="visible" fill="#FFFFFF"/>
				<clipPath id="SVGID_4_">
					<use xlink:href="#SVGID_3_"  overflow="visible"/>
				</clipPath>
				<rect x="9.1" y="1.7" clip-path="url(#SVGID_4_)" fill="#FFFFFF" width="27.9" height="28.8"/>
			</g>
		</g>
	</g>
</g>
</svg>
