<svg xmlns="http://www.w3.org/2000/svg" xmlns:xlink="http://www.w3.org/1999/xlink" width="18" height="9" viewBox="0 0 18 9">
    <defs>
        <path id="a" d="M4.145 0A4.15 4.15 0 0 0 0 4.145a4.15 4.15 0 0 0 4.145 4.146A4.15 4.15 0 0 0 8.29 4.145 4.15 4.15 0 0 0 4.145 0z"/>
        <path id="c" d="M16.77 2.396H4.314V.479a.48.48 0 0 0-.791-.364L.168 2.99a.479.479 0 0 0 0 .728l3.354 2.875a.479.479 0 0 0 .79-.364V4.312h12.459a.48.48 0 0 0 .479-.479v-.958a.48.48 0 0 0-.48-.48z"/>
    </defs>
    <g fill="none" fill-rule="evenodd">
        <g transform="rotate(180 4.646 4.146)">
            <mask id="b" fill="#fff">
                <use xlink:href="#a"/>
            </mask>
            <path fill="#4A4A4A" d="M-4.396-6.396h21.084v21.084H-4.396z" mask="url(#b)"/>
        </g>
        <g transform="rotate(180 9 3.75)">
            <mask id="d" fill="#fff">
                <use xlink:href="#c"/>
            </mask>
            <path fill="#4A4A4A" d="M-2.396-2.396h22.042v11.5H-2.396z" mask="url(#d)"/>
        </g>
    </g>
</svg>
