<?xml version="1.0" encoding="UTF-8" standalone="no"?>
<svg width="24px" height="24px" viewBox="0 0 24 24" version="1.1" xmlns="http://www.w3.org/2000/svg" xmlns:xlink="http://www.w3.org/1999/xlink">
    <!-- Generator: Sketch 43.2 (39069) - http://www.bohemiancoding.com/sketch -->
    <title>Rotate_new</title>
    <desc>Created with Sketch.</desc>
    <defs></defs>
    <g id="Page-1" stroke="none" stroke-width="1" fill="none" fill-rule="evenodd">
        <g id="Rotate_new" fill="#FFFFFF">
            <path d="M3.51211712,15 C4.74762635,18.4955771 8.08134352,21 12,21 C16.9705627,21 21,16.9705627 21,12 C21,7.02943725 16.9705627,3 12,3 C8.46627873,3 5.40822224,5.03656304 3.93551965,8 L6.25468928,8 C7.51963541,6.1865159 9.62125489,5 12,5 C15.8659932,5 19,8.13400675 19,12 C19,15.8659932 15.8659932,19 12,19 C9.20760404,19 6.7970951,17.3649473 5.67363116,15 L3.51211712,15 Z" id="Combined-Shape"></path>
            <g id="Arrow-end" transform="translate(5.816490, 7.325338) rotate(125.000000) translate(-5.816490, -7.325338) translate(2.816490, 2.325338)">
                <rect id="Rectangle-2" transform="translate(2.974874, 3.474874) rotate(45.000000) translate(-2.974874, -3.474874) " x="-0.0251262658" y="2.47487373" width="6" height="2"></rect>
                <rect id="Rectangle-2" transform="translate(2.974874, 6.474874) scale(1, -1) rotate(45.000000) translate(-2.974874, -6.474874) " x="-0.0251262658" y="5.47487373" width="6" height="2"></rect>
            </g>
        </g>
    </g>
</svg>