<?xml version="1.0" encoding="UTF-8" standalone="no"?>
<svg width="24px" height="24px" viewBox="0 0 24 24" version="1.1" xmlns="http://www.w3.org/2000/svg" xmlns:xlink="http://www.w3.org/1999/xlink">
    <!-- Generator: Sketch 43.2 (39069) - http://www.bohemiancoding.com/sketch -->
    <title>Rotate_old</title>
    <desc>Created with Sketch.</desc>
    <defs></defs>
    <g id="Page-1" stroke="none" stroke-width="1" fill="none" fill-rule="evenodd">
        <g id="Rotate_old" fill="#FFFFFF">
            <g id="Rotate" transform="translate(0.533889, 0.000000)">
                <g transform="translate(0.000000, 0.000000)" id="Fill-173">
                    <g transform="translate(0.133333, 1.000000)">
                        <path d="M11.3611887,18.3540293 C6.90869514,18.3540293 3.33749024,14.6314547 3.79630114,10.2334608 C4.16047701,6.74556576 7.11824413,3.94249366 10.7287395,3.66038751 C13.308389,3.45841586 15.7270744,4.50139091 17.2809478,6.37024193 L14.0485701,5.95158005 L13.8242344,7.57266828 L18.8491854,8.22396552 C18.8867859,8.22846287 18.9248089,8.23091596 18.9624094,8.23091596 C19.379395,8.23091596 19.741881,7.93286468 19.7989155,7.52197095 L20.4715002,2.6591151 L18.7967981,2.44201602 L18.4224828,5.1473731 C16.4423293,2.90074515 13.4148534,1.69463916 10.2141615,2.06669219 C5.94840308,2.56303547 2.54661178,5.92786678 2.11526194,10.0650148 C1.55463389,15.440159 5.91925212,19.9894273 11.3611887,19.9894273 C16.3409347,19.9894273 20.4186904,16.1797678 20.645561,11.4142181 C20.6565455,11.1844447 20.4596708,10.9947385 20.2222383,10.9947385 L19.3760152,10.9947385 C19.1474547,10.9947385 18.9670567,11.1709526 18.9548048,11.3921402 C18.7406086,15.2659891 15.4165532,18.3540293 11.3611887,18.3540293" transform="translate(11.356333, 10.994714) scale(-1, 1) rotate(10.000000) translate(-11.356333, -10.994714) "></path>
                    </g>
                </g>
            </g>
        </g>
    </g>
</svg>