<svg xmlns="http://www.w3.org/2000/svg" xmlns:xlink="http://www.w3.org/1999/xlink" width="18" height="18" viewBox="0 0 18 18">
    <defs>
        <path id="a" d="M6.751.843a.36.36 0 0 0-.542 0l-2.52 2.88a.36.36 0 0 0 .271.597h1.8v6.84c0 .199.161.36.36.36h.72a.36.36 0 0 0 .36-.36V4.32H9a.359.359 0 0 0 .271-.597L6.751.843z"/>
    </defs>
    <g fill="none" fill-rule="evenodd">
        <g transform="translate(2.16 2.88)">
            <mask id="b" fill="#fff">
                <use xlink:href="#a"/>
            </mask>
            <path fill="#FFF" d="M0-2.88h18.72v28.8H0z" mask="url(#b)"/>
        </g>
        <ellipse cx="2.88" cy="14.4" fill="#FFF" stroke="#FFF" rx="2.88" ry="2.88"/>
        <ellipse cx="15.12" cy="2.88" stroke="#FFF" rx="2.88" ry="2.88"/>
    </g>
</svg>
