<svg xmlns="http://www.w3.org/2000/svg" xmlns:xlink="http://www.w3.org/1999/xlink" width="13" height="7" viewBox="0 0 13 7">
    <defs>
        <path id="a" d="M2.994 0A2.997 2.997 0 0 0 0 2.994a2.997 2.997 0 0 0 2.994 2.994 2.997 2.997 0 0 0 2.993-2.994A2.997 2.997 0 0 0 2.994 0z"/>
        <path id="c" d="M12.112 1.73H3.115V.346a.347.347 0 0 0-.571-.263L.12 2.16a.346.346 0 0 0 0 .525l2.423 2.077a.346.346 0 0 0 .57-.263V3.115h8.998a.346.346 0 0 0 .346-.346v-.693a.346.346 0 0 0-.346-.346z"/>
    </defs>
    <g fill="none" fill-rule="evenodd">
        <g transform="rotate(180 3.355 3.355)">
            <mask id="b" fill="#fff">
                <use xlink:href="#a"/>
            </mask>
            <path fill="#4A4A4A" d="M-3.175-8.62h15.227V6.609H-3.175z" mask="url(#b)"/>
        </g>
        <g transform="rotate(180 6.5 3.07)">
            <mask id="d" fill="#fff">
                <use xlink:href="#c"/>
            </mask>
            <path fill="#3E3E3E" d="M-1.73-1.73h15.919v8.305h-15.92z" mask="url(#d)"/>
        </g>
    </g>
</svg>
