<?xml version="1.0" encoding="utf-8"?>
<!-- Generator: Adobe Illustrator 19.1.0, SVG Export Plug-In . SVG Version: 6.00 Build 0)  -->
<!DOCTYPE svg PUBLIC "-//W3C//DTD SVG 1.1//EN" "http://www.w3.org/Graphics/SVG/1.1/DTD/svg11.dtd">
<svg version="1.1" xmlns="http://www.w3.org/2000/svg" xmlns:xlink="http://www.w3.org/1999/xlink" x="0px" y="0px"
	 viewBox="0 0 40 40" enable-background="new 0 0 40 40" xml:space="preserve">
<g id="Ebene_2">
</g>
<g id="Ebene_1">
	<g>
		<circle fill="#9C9B9B" cx="9.5" cy="9.6" r="3.5"/>
		<circle fill="#9C9B9B" cx="30.5" cy="9.6" r="3.5"/>
		<circle fill="#9C9B9B" cx="9.5" cy="30.6" r="3.5"/>
		<g>
			<path fill="#9C9B9B" d="M30.5,28.1c1.4,0,2.5,1.1,2.5,2.5s-1.1,2.5-2.5,2.5S28,31.9,28,30.6S29.1,28.1,30.5,28.1 M30.5,27.1
				c-1.9,0-3.5,1.6-3.5,3.5s1.6,3.5,3.5,3.5s3.5-1.6,3.5-3.5S32.4,27.1,30.5,27.1L30.5,27.1z"/>
		</g>
		<path fill="#9C9B9B" d="M27,30.6c0-0.2,0-0.3,0.1-0.5H10v-20h20v17.1c0.2,0,0.3-0.1,0.5-0.1s0.3,0,0.5,0.1V9.1H9v22h18.1
			C27,30.9,27,30.7,27,30.6z"/>
	</g>
</g>
<g id="Ebene_3">
</g>
</svg>
