<?xml version="1.0" encoding="UTF-8" standalone="no"?>
<svg width="24px" height="24px" viewBox="0 0 24 24" version="1.1" xmlns="http://www.w3.org/2000/svg" xmlns:xlink="http://www.w3.org/1999/xlink">
    <!-- Generator: Sketch 43.2 (39069) - http://www.bohemiancoding.com/sketch -->
    <title>Reply_old</title>
    <desc>Created with Sketch.</desc>
    <defs>
        <path d="M10.631845,4.641 L9.73202682,5.54081818 L11.8272541,7.63636364 L4.56698136,7.63636364 C2.87425536,7.63636364 1.39343718,6.36172727 1.28016445,4.67281818 C1.15607355,2.82004545 2.62798264,1.27272727 4.45466318,1.27272727 L13.0455723,1.27272727 C13.2212086,1.27272727 13.3637541,1.13018182 13.3637541,0.954545455 L13.3637541,0.318181818 C13.3637541,0.142545455 13.2212086,0 13.0455723,0 L4.583845,0 C2.18793718,0 0.123573641,1.8375 0.00552818955,4.23022727 C-0.120471814,6.78809091 1.92384627,8.90909091 4.45466318,8.90909091 L11.8272541,8.90909091 L9.73202682,11.0046364 L10.631845,11.9044545 L13.8136632,8.72263636 C14.0621632,8.47413636 14.0621632,8.07131818 13.8136632,7.82281818 L10.631845,4.641 Z" id="path-1"></path>
    </defs>
    <g id="Page-1" stroke="none" stroke-width="1" fill="none" fill-rule="evenodd">
        <g id="Reply_old">
            <g id="Reply_Icon" transform="translate(5.000000, 6.000000)">
                <mask id="mask-2" fill="white">
                    <use xlink:href="#path-1"></use>
                </mask>
                <g id="Clip-2"></g>
                <polygon id="Fill-1" fill="#FFFFFF" mask="url(#mask-2)" points="-1.59090909 -1.59090909 15.5909473 -1.59090909 15.5909473 13.4953636 -1.59090909 13.4953636"></polygon>
            </g>
        </g>
    </g>
</svg>