<svg xmlns="http://www.w3.org/2000/svg" xmlns:xlink="http://www.w3.org/1999/xlink" width="14" height="13" viewBox="0 0 14 13">
    <defs>
        <path id="a" d="M10.632 4.641l-.9.9 2.095 2.095h-7.26c-1.693 0-3.174-1.274-3.287-2.963a3.185 3.185 0 0 1 3.175-3.4h8.59a.318.318 0 0 0 .319-.318V.318A.318.318 0 0 0 13.046 0H4.584C2.188 0 .124 1.837.006 4.23a4.46 4.46 0 0 0 4.449 4.68h7.372l-2.095 2.095.9.9 3.182-3.182a.636.636 0 0 0 0-.9L10.632 4.64z"/>
    </defs>
    <g fill="none" fill-rule="evenodd">
        <mask id="b" fill="#fff">
            <use xlink:href="#a"/>
        </mask>
        <path fill="#4A4A4A" d="M-1.59-1.59h17.18v15.085H-1.59z" mask="url(#b)"/>
    </g>
</svg>
