<svg xmlns="http://www.w3.org/2000/svg" width="20" height="18" viewBox="0 0 20 18">
    <path fill="#FFF" fill-rule="evenodd" d="M11.78 16.243c4.243-.748 7-5.014 5.8-9.268C16.626 3.6 13.32 1.337 9.83 1.666a7.338 7.338 0 0 0-5.774 3.77l3.008-.955.495 1.558-4.675 1.486a.818.818 0 0 1-1.027-.532L.372 2.318l1.558-.496.827 2.602C4.254 1.878 6.93.182 10.045.01c4.151-.228 7.978 2.514 9.107 6.516 1.468 5.2-1.902 10.413-7.088 11.328-4.746.836-9.294-2.23-10.337-6.885a.407.407 0 0 1 .33-.484l.807-.143a.412.412 0 0 1 .47.321c.877 3.779 4.581 6.262 8.446 5.58"/>
</svg>
