<?xml version="1.0" encoding="utf-8"?>
<!-- Generator: Adobe Illustrator 19.2.1, SVG Export Plug-In . SVG Version: 6.00 Build 0)  -->
<!DOCTYPE svg PUBLIC "-//W3C//DTD SVG 1.1//EN" "http://www.w3.org/Graphics/SVG/1.1/DTD/svg11.dtd">
<svg version="1.1" id="Ebene_1" xmlns="http://www.w3.org/2000/svg" xmlns:xlink="http://www.w3.org/1999/xlink" x="0px" y="0px"
	 viewBox="0 0 40 40" enable-background="new 0 0 40 40" xml:space="preserve">
<g>
	<circle fill="#FFFFFF" cx="9.4" cy="9.6" r="3.6"/>
	<circle fill="#FFFFFF" cx="31.1" cy="9.6" r="3.6"/>
	<circle fill="#FFFFFF" cx="9.4" cy="31.4" r="3.6"/>
	<g>
		<path fill="#FFFFFF" d="M31.1,28.8c1.4,0,2.6,1.1,2.6,2.6c0,1.5-1.1,2.6-2.6,2.6s-2.6-1.2-2.6-2.6S29.7,28.8,31.1,28.8 M31.1,27.7
			c-2,0-3.6,1.7-3.6,3.6s1.7,3.6,3.6,3.6c2,0,3.6-1.7,3.6-3.6S33.1,27.7,31.1,27.7L31.1,27.7z"/>
	</g>
	<path fill="#FFFFFF" d="M27.5,31.4c0-0.2,0-0.3,0.1-0.5H9.9V10.1h20.7v17.7c0.2,0,0.3-0.1,0.5-0.1c0.2,0,0.3,0,0.5,0.1V9.1H8.9
		v22.8h18.7C27.5,31.7,27.5,31.5,27.5,31.4z"/>
</g>
</svg>
